<svg xmlns="http://www.w3.org/2000/svg" version="1.1" xmlns:xlink="http://www.w3.org/1999/xlink" xmlns:svgjs="http://svgjs.dev/svgjs" width="1440" height="560" preserveAspectRatio="none" viewBox="0 0 1440 560"><g mask="url(&quot;#SvgjsMask1003&quot;)" fill="none"><rect width="1440" height="560" x="0" y="0" fill="rgba(0, 0, 0, 1)"></rect><path d="M-72.87 550.52C59.91 548.93 180.01 399.12 436.33 399.32 692.65 399.52 801.69 661.02 945.53 669.19" stroke="rgba(44, 44, 44, 1)" stroke-width="2"></path><path d="M-37.7 435.34C72.45 435.56 179.81 505.34 397.31 505.34 614.82 505.34 612.95 435.09 832.33 435.34 1051.71 435.59 1149.28 616.02 1267.34 619.78" stroke="rgba(44, 44, 44, 1)" stroke-width="2"></path><path d="M-27.41 143.29C73.27 143.56 170.89 213.29 369.19 213.29 567.49 213.29 546.49 133.9 765.78 143.29 985.07 152.68 1019.06 547.91 1162.38 589.67" stroke="rgba(44, 44, 44, 1)" stroke-width="2"></path><path d="M-211.5 243.22C-34.44 242.61 124.38 105.78 483.86 108.82 843.33 111.86 966.57 583.74 1179.21 608.79" stroke="rgba(44, 44, 44, 1)" stroke-width="2"></path><path d="M-228.58 384.51C-66.84 383.2 76.96 220.46 397.67 222.11 718.39 223.76 833.79 640.73 1023.93 661.97" stroke="rgba(44, 44, 44, 1)" stroke-width="2"></path></g><defs><mask id="SvgjsMask1003"><rect width="1440" height="560" fill="#ffffff"></rect></mask></defs></svg>