<svg xmlns="http://www.w3.org/2000/svg" version="1.1" xmlns:xlink="http://www.w3.org/1999/xlink" xmlns:svgjs="http://svgjs.dev/svgjs" width="1440" height="560" preserveAspectRatio="none" viewBox="0 0 1440 560"><g mask="url(&quot;#SvgjsMask1006&quot;)" fill="none"><rect width="1440" height="560" x="0" y="0" fill="rgba(0, 0, 0, 1)"></rect><path d="M -445.3545596036463,78 C -349.35,146.2 -157.35,397.8 34.645440396353706,419 C 226.65,440.2 322.65,201.8 514.6454403963537,184 C 706.65,166.2 802.65,314.6 994.6454403963537,330 C 1186.65,345.4 1385.57,256.8 1474.6454403963537,261 C 1563.72,265.2 1446.93,333 1440,351" stroke="rgba(44, 44, 44, 1)" stroke-width="2"></path><path d="M -28.75360806712638,283 C 67.25,270.8 259.25,210.2 451.2463919328736,222 C 643.25,233.8 739.25,341.4 931.2463919328736,342 C 1123.25,342.6 1219.25,236.6 1411.2463919328736,225 C 1603.25,213.4 1885.5,308.4 1891.2463919328736,284 C 1897,259.6 1530.25,139.2 1440,103" stroke="rgba(44, 44, 44, 1)" stroke-width="2"></path><path d="M -409.4286361071613,374 C -313.43,351.6 -121.43,245.4 70.57136389283869,262 C 262.57,278.6 358.57,475.2 550.5713638928387,457 C 742.57,438.8 838.57,171.6 1030.5713638928387,171 C 1222.57,170.4 1428.69,463.4 1510.5713638928387,454 C 1592.46,444.6 1454.11,190 1440,124" stroke="rgba(44, 44, 44, 1)" stroke-width="2"></path><path d="M -382.84429834736716,79 C -286.84,130.2 -94.84,322.8 97.15570165263286,335 C 289.16,347.2 385.16,121 577.1557016526328,140 C 769.16,159 865.16,424.6 1057.1557016526328,430 C 1249.16,435.4 1460.59,184.8 1537.1557016526328,167 C 1613.72,149.2 1459.43,306.2 1440,341" stroke="rgba(44, 44, 44, 1)" stroke-width="2"></path></g><defs><mask id="SvgjsMask1006"><rect width="1440" height="560" fill="#ffffff"></rect></mask></defs></svg>